# AST/ASF file generated using VICON BodyLanguage
# -----------------------------------------------
:version 1.10
:name VICON
:units
  mass 1.0
  length 0.45
  angle deg
:documentation
   .ast/.asf automatically generated from VICON data using
   VICON BodyBuilder and BodyLanguage model FoxedUp or BRILLIANT.MOD
:root
   order TX TY TZ RX RY RZ
   axis XYZ
   position 0 0 0  
   orientation 0 0 0 
:bonedata
  begin
     id 1 
     name lhipjoint
     direction 0.576517 -0.752066 0.319413 
     length 2.45433 
     axis 0 0 0  XYZ
  end
  begin
     id 2 
     name lfemur
     direction 0.34202 -0.939693 0  
     length 7.54459  
     axis 0 0 20  XYZ
    dof rx ry rz
    limits (-160.0 20.0)
           (-70.0 70.0)
           (-60.0 70.0)
  end
  begin
     id 3 
     name ltibia
     direction 0.34202 -0.939693 0   
     length 7.73986   
     axis 0 0 20   XYZ
    dof rx
    limits (-10.0 170.0)
  end
  begin
     id 4 
     name lfoot
     direction 0.090693 -0.249177 0.964202   
     length 2.28437   
     axis -90 7.62852e-016 20   XYZ
    dof rx rz
    limits (-45.0 90.0)
           (-70.0 20.0)
  end
  begin
     id 5 
     name ltoes
     direction 1.5356e-011 -4.21928e-011 1   
     length 1.14243   
     axis -90 7.62852e-016 20   XYZ
    dof rx
    limits (-90.0 20.0)
  end
  begin
     id 6 
     name rhipjoint
     direction -0.573937 -0.753736 0.320122   
     length 2.44889  
     axis 0 0 0  XYZ 
  end
  begin
     id 7 
     name rfemur
     direction -0.34202 -0.939693 0   
     length 7.50166   
     axis 0 0 -20   XYZ
    dof rx ry rz
    limits (-160.0 20.0)
           (-70.0 70.0)
           (-70.0 60.0)
  end
  begin
     id 8 
     name rtibia
     direction -0.34202 -0.939693 0   
     length 7.54266   
     axis 0 0 -20   XYZ
    dof rx
    limits (-10.0 170.0)
 end
 begin
     id 9 
     name rfoot
     direction -0.114017 -0.31326 0.942798   
     length 2.34212  
     axis -90 -7.62852e-016 -20   XYZ
    dof rx rz
    limits (-45.0 90.0)
           (-20.0 70.0)
  end
  begin
     id 10 
     name rtoes
     direction -1.53557e-011 -4.21867e-011 1   
     length 1.16246   
     axis -90 -7.62852e-016 -20   XYZ
    dof rx
    limits (-90.0 20.0)
  end
  begin
     id 11 
     name lowerback
     direction -0.0228371 0.999155 -0.034167   
     length 2.0537   
     axis 0 0 0   XYZ
    dof rx ry rz
    limits (-20.0 45.0)
           (-30.0 30.0)
           (-30.0 30.0)
  end
  begin
     id 12 
     name upperback
     direction 0.0198981 0.999794 0.00389455   
     length 2.05302   
     axis 0 0 0   XYZ
    dof rx ry rz
    limits (-20.0 45.0)
           (-30.0 30.0)
           (-30.0 30.0)
  end
  begin
     id 13 
     name thorax
     direction 0.0304566 0.99935 0.0192987   
     length 2.05315   
     axis 0 0 0   XYZ
    dof rx ry rz
    limits (-20.0 45.0)
           (-30.0 30.0)
           (-30.0 30.0)
  end
  begin
     id 14 
     name lowerneck
     direction -0.0196762 0.99417 0.106017   
     length 1.82056   
     axis 0 0 0   XYZ
    dof rx ry rz
    limits (-20.0 45.0)
           (-30.0 30.0)
           (-30.0 30.0)
  end
  begin
     id 15 
     name upperneck
     direction 0.00517787 0.9802 -0.197944   
     length 1.83835   
     axis 0 0 0   XYZ
    dof rx ry rz
    limits (-20.0 45.0)
           (-30.0 30.0)
           (-30.0 30.0)
  end
  begin
     id 16
     name head
     direction 0.00211419 0.996945 -0.078081  
     length 1.85629  
     axis 0 0 0   XYZ
    dof rx ry rz
    limits (-20.0 45.0)
           (-30.0 30.0)
           (-30.0 30.0)
  end
  begin
     id 17 
     name lclavicle
     direction 0.930001 0.365811 -0.0357824  
     length 3.81961  
     axis 0 0 0   XYZ
    dof ry rz
    limits (-20.0 10.0)
           (0.0 20.0)
  end
  begin
     id 18 
     name lhumerus
     direction 1 -4.48968e-011 -3.06644e-027   
     length 5.14507   
     axis 180 -30 -90   XYZ
    dof rx ry rz
    limits (-60.0 90.0)
           (-90.0 90.0)
           (-90.0 90.0)
  end
  begin
     id 19
     name lradius
     direction 1 -4.48965e-011 9.06925e-028   
     length 3.50646   
     axis 180 -30 -90   XYZ
    dof rx
    limits (-10.0 170.0)
  end
  begin
     id 20
     name lwrist
     direction 1 -4.48957e-011 1.03922e-027   
     length 1.75323   
     axis -2.56395e-016 90 90   XYZ
    dof ry
    limits (-180.0 0.0)
 end
  begin
     id 21 
     name lhand
     direction 1 -4.48967e-011 2.08017e-027   
     length 0.629969   
     axis -1.32723e-015 90 90   XYZ
    dof rx rz
    limits (-90.0 90.0)
           (-45.0 45.0)
  end
  begin
     id 22 
     name lfingers
     direction 1 -4.49089e-011 4.20095e-027   
     length 0.507897   
     axis -2.6545e-015 90 90   XYZ
    dof rx
    limits (0.0 90.0)
  end
  begin
     id 23
     name lthumb
     direction 0.707107 -6.35001e-011 0.707107   
     length 0.729241   
     axis -90 45 5.05613e-014   XYZ
    dof rx rz
    limits (-45.0 45.0)
           (-45.0 45.0)
  end
  begin
     id 24 
     name rclavicle
     direction -0.881882 0.464123 -0.0829113   
     length 3.47515  
     axis 0 0 0   XYZ 
    dof ry rz
    limits (-10.0 20.0)
           (-20.0 0.0)
  end
  begin
     id 25 
     name rhumerus
     direction -1 -4.48961e-011 -1.55672e-027  
     length 5.232   
     axis 180 30 90   XYZ
    dof rx ry rz
    limits (-90.0 60.0)
           (-90.0 90.0)
           (-90.0 90.0)
  end
  begin
     id 26 
     name rradius
     direction -1 -4.48963e-011 6.18178e-029   
     length 3.65641   
     axis 180 30 90   XYZ
    dof rx
    limits (-10.0 170.0)
  end
  begin
     id 27 
     name rwrist
     direction -1 -4.48982e-011 1.04136e-027   
     length 1.8282   
     axis -2.56395e-016 -90 -90   XYZ
    dof ry
    limits (-180.0 0.0)
  end
  begin
     id 28
     name rhand
     direction -1 -4.48929e-011 2.07378e-027   
     length 0.656807   
     axis -1.32723e-015 -90 -90   XYZ
    dof rx rz
    limits (-90.0 90.0)
           (-45.0 45.0)
  end
  begin
     id 29
     name rfingers
     direction -1 -4.489e-011 4.13816e-027   
     length 0.529535   
     axis -2.6545e-015 -90 -90   XYZ
    dof rx
    limits (0.0 90.0)
  end
  begin
     id 30
     name rthumb
     direction -0.707107 -6.34843e-011 0.707107   
     length 0.760309   
     axis -90 -45 -5.05613e-014   XYZ
    dof rx rz
    limits (-45.0 45.0)
           (-45.0 45.0)
  end
:hierarchy
  begin
    root lhipjoint rhipjoint lowerback
    lhipjoint lfemur
    lfemur ltibia
    ltibia lfoot
    lfoot ltoes
    rhipjoint rfemur
    rfemur rtibia
    rtibia rfoot
    rfoot rtoes
    lowerback upperback
    upperback thorax
    thorax lowerneck lclavicle rclavicle
    lowerneck upperneck
    upperneck head
    lclavicle lhumerus
    lhumerus lradius
    lradius lwrist
    lwrist lhand lthumb
    lhand lfingers
    rclavicle rhumerus
    rhumerus rradius
    rradius rwrist
    rwrist rhand rthumb
    rhand rfingers
  end

#!OML:ASF H:\ManfredETheater\Project 1\Capture day 1\Session 1\subject.ASF
:FULLY-SPECIFIED
:DEGREES
1
root 18.4593 15.323 41.9051 -151.821 -19.1085 179.295
lowerback 16.9867 -0.753309 -0.58364
upperback -1.40772 -0.869214 3.24491
thorax -11.0709 -0.296797 4.13812
lowerneck -19.3186 0.353679 -0.824389
upperneck 4.9311 0.981086 -6.68549
head 4.61192 -0.156671 -1.89457
rclavicle -1.19271e-014 1.78906e-014
rhumerus -40.7328 13.9221 -76.363
rradius 63.9411
rwrist -0.238301
rhand -22.9425 -6.14811
rfingers 7.12502
rthumb 3.49865 -36.0991
lclavicle -1.19271e-014 1.78906e-014
lhumerus -37.5809 -16.5556 98.0977
lradius 74.0348
lwrist 3.56899
lhand -18.0143 -2.68419
lfingers 7.12502
lthumb 8.2565 27.1345
rfemur -55.4298 -8.69774 20.1576
rtibia 70.1384
rfoot -24.576 -14.0807
rtoes -44.8257
lfemur -16.5253 -3.78471 -19.6886
ltibia 56.7362
lfoot 10.0982 -5.86486
ltoes -12.4436
2
root 18.379 15.2948 41.6607 -151.744 -18.4295 179.872
lowerback 16.9949 -0.302798 0.0289672
upperback -1.19536 -0.165938 3.24096
thorax -10.8901 -0.0140833 3.59412
lowerneck -18.9749 0.246327 -1.02478
upperneck 4.50589 0.844233 -6.93138
head 4.42379 -0.238434 -1.94825
rclavicle -2.3059e-014 -1.03368e-014
rhumerus -38.8224 13.9321 -76.4706
rradius 63.9079
rwrist -0.210834
rhand -23.1815 -5.58519
rfingers 7.12502
rthumb 3.26784 -35.5399
lclavicle -2.3059e-014 -1.03368e-014
lhumerus -37.584 -14.529 97.1911
lradius 72.5195
lwrist 4.77741
lhand -17.8784 -2.10172
lfingers 7.12502
lthumb 8.38767 27.7117
rfemur -54.7075 -8.24696 20.395
rtibia 69.9936
rfoot -24.8588 -14.0548
rtoes -45.5494
lfemur -19.4502 -2.17316 -19.5314
ltibia 61.4723
lfoot 10.9747 -5.1781
ltoes -6.94081
3
root 18.3033 15.296 41.3838 -152.17 -18.4047 180.299
lowerback 17.5464 -0.0433133 0.761513
upperback -0.925523 0.31211 3.26745
thorax -10.9298 0.156741 3.08521
lowerneck -18.6912 0.085489 -1.17706
upperneck 4.29033 0.644161 -7.15301
head 4.3085 -0.349954 -2.00831
rclavicle -8.34896e-015 3.10104e-014
rhumerus -36.9666 14.0255 -76.6724
rradius 64.0375
rwrist -0.394496
rhand -22.2752 -3.86853
rfingers 7.12502
rthumb 4.14298 -33.808
lclavicle -8.34896e-015 3.10104e-014
lhumerus -37.7325 -12.3178 96.1398
lradius 70.7428
lwrist 5.84664
lhand -17.6926 -1.88847
lfingers 7.12502
lthumb 8.567 27.9177
rfemur -52.9077 -8.2549 20.7273
rtibia 69.5907
rfoot -25.3604 -14.2985
rtoes -46.1346
lfemur -21.6929 -1.00306 -19.073
ltibia 65.8056
lfoot 9.1047 -4.27423
ltoes -8.3546
4
root 18.2304 15.2721 41.1087 -152.705 -18.3536 180.753
lowerback 18.2099 0.241061 1.4585
upperback -0.704102 0.825987 3.29221
thorax -11.0763 0.346567 2.58235
lowerneck -18.396 -0.0466089 -1.31799
upperneck 4.19593 0.495255 -7.44083
head 4.2316 -0.441575 -2.08629
rclavicle 3.29983e-014 2.38542e-015
rhumerus -34.9859 14.2938 -76.9531
rradius 64.2416
rwrist -0.129089
rhand -20.7906 -4.52936
rfingers 7.12502
rthumb 5.57651 -34.436
lclavicle 3.29983e-014 2.38542e-015
lhumerus -38.0716 -10.0014 94.9874
lradius 68.9252
lwrist 6.68923
lhand -18.0379 -0.853272
lfingers 7.12502
lthumb 8.23374 28.9663
rfemur -51.057 -8.26834 21.0776
rtibia 69.2562
rfoot -25.9723 -14.5428
rtoes -46.7696
lfemur -24.016 0.260384 -18.6007
ltibia 70.0688
lfoot 7.52528 -3.54243
ltoes -17.2484
5
root 18.1613 15.2483 40.8291 -153.253 -18.3956 181.288
lowerback 18.7802 0.513125 2.21499
upperback -0.46468 1.33598 3.30847
thorax -11.1329 0.528594 2.02935
lowerneck -18.2552 -0.251052 -1.54643
upperneck 4.17876 0.26587 -7.54554
head 4.1977 -0.565905 -2.10132
rclavicle 6.52014e-014 3.73715e-014
rhumerus -32.7557 14.626 -77.3146
rradius 64.6294
rwrist -0.0814478
rhand -21.8113 -3.19111
rfingers 7.12502
rthumb 4.59097 -33.1214
lclavicle 6.52014e-014 3.73715e-014
lhumerus -38.383 -7.6146 93.5036
lradius 66.9704
lwrist 7.7623
lhand -17.8111 -0.259791
lfingers 7.12502
lthumb 8.45263 29.5511
rfemur -49.1657 -8.29304 21.5613
rtibia 68.83
rfoot -26.6783 -14.3126
rtoes -46.9052
lfemur -26.4343 1.63498 -17.9303
ltibia 74.1275
lfoot 5.70439 -2.9241
ltoes -16.6426
6
root 18.0972 15.2154 40.5485 -153.739 -18.4339 181.742
lowerback 19.2653 0.787791 2.80338
upperback -0.269027 1.81907 3.31655
thorax -11.1798 0.709078 1.56601
lowerneck -18.0919 -0.435044 -1.73287
upperneck 4.21315 0.0635378 -7.73272
head 4.17819 -0.682538 -2.14646
rclavicle -3.81667e-014 7.15625e-015
rhumerus -30.2352 15.3835 -77.677
rradius 64.8445
rwrist -0.55626
rhand -21.8409 -2.75791
rfingers 7.12502
rthumb 4.56236 -32.6888
lclavicle -3.81667e-014 7.15625e-015
lhumerus -38.8292 -5.20614 91.8054
lradius 64.8544
lwrist 8.62862
lhand -18.1243 0.294971
lfingers 7.12502
lthumb 8.15039 30.1178
rfemur -47.2302 -8.34251 21.9747
rtibia 68.3934
rfoot -27.4466 -14.5417
rtoes -47.2079
lfemur -29.1571 3.015 -17.3222
ltibia 78.0931
lfoot 4.10199 -2.47657
ltoes -13.9838
7
root 18.0339 15.1801 40.2573 -154.15 -18.635 182.025
lowerback 19.547 1.01649 3.30863
upperback -0.0867543 2.21778 3.29245
thorax -11.1165 0.857559 1.13607
lowerneck -17.8454 -0.686275 -1.98958
upperneck 4.20803 -0.225632 -7.90823
head 4.1305 -0.840542 -2.18246
rclavicle -4.05521e-014 3.18055e-014
rhumerus -27.7655 16.1891 -77.978
rradius 65.6366
rwrist -0.951841
rhand -21.7852 -2.9827
rfingers 7.12502
rthumb 4.61615 -32.9124
lclavicle -4.05521e-014 3.18055e-014
lhumerus -39.4017 -2.90252 89.8672
lradius 62.5934
lwrist 9.34889
lhand -19.0717 1.39118
lfingers 7.12502
lthumb 7.23594 31.2475
rfemur -45.2673 -8.58566 22.2849
rtibia 67.9246
rfoot -28.3231 -14.6767
rtoes -47.3607
lfemur -31.9881 4.23272 -16.8019
ltibia 81.7871
lfoot 2.23077 -2.01387
ltoes -6.80961
8
root 17.9719 15.1351 39.9597 -154.346 -18.6746 182.16
lowerback 19.6524 1.31184 3.5579
upperback -0.0347392 2.65453 3.20481
thorax -11.1005 1.04312 0.77129
lowerneck -17.7709 -0.965345 -2.32961
upperneck 4.5186 -0.497537 -8.09312
head 4.20885 -1.00499 -2.21182
rclavicle -3.97569e-015 -2.62396e-014
rhumerus -25.5107 17.0281 -78.257
rradius 66.8473
rwrist -1.167
rhand -21.7441 -2.83143
rfingers 7.12502
rthumb 4.65589 -32.7603
lclavicle -3.97569e-015 -2.62396e-014
lhumerus -40.2691 -0.753439 87.6912
lradius 60.266
lwrist 9.94191
lhand -19.4582 1.15527
lfingers 7.12502
lthumb 6.86288 31.024
rfemur -43.4719 -8.7334 22.3868
rtibia 67.4154
rfoot -29.0622 -15.0843
rtoes -47.883
lfemur -35.1414 5.55047 -16.5538
ltibia 85.2397
lfoot 0.570744 -1.80811
ltoes -6.08883
9
root 17.9101 15.089 39.6531 -154.463 -18.7223 182.053
lowerback 19.6927 1.62594 3.57744
upperback -0.0365096 3.06722 3.049
thorax -11.111 1.23263 0.46856
lowerneck -17.696 -1.30356 -2.76049
upperneck 4.99774 -0.815596 -8.22665
head 4.339 -1.1959 -2.21708
rclavicle 1.59028e-014 -3.73715e-014
rhumerus -23.5661 17.7842 -78.5553
rradius 68.5266
rwrist -1.18419
rhand -21.8695 -2.51844
rfingers 7.12502
rthumb 4.53477 -32.4499
lclavicle 1.59028e-014 -3.73715e-014
lhumerus -41.3163 1.04371 85.3047
lradius 57.925
lwrist 10.5279
lhand -20.1441 0.829321
lfingers 7.12502
lthumb 6.20071 30.7186
rfemur -41.6094 -8.96869 22.2385
rtibia 66.828
rfoot -30.2237 -15.0409
rtoes -47.686
lfemur -38.3747 6.74636 -16.596
ltibia 88.3521
lfoot -1.01598 -0.663939
ltoes -4.39676
